<?xml version="1.0" encoding="utf-8"?>
<!-- Generator: Adobe Illustrator 22.0.0, SVG Export Plug-In . SVG Version: 6.00 Build 0)  -->
<svg version="1.1" xmlns="http://www.w3.org/2000/svg" xmlns:xlink="http://www.w3.org/1999/xlink" x="0px" y="0px"
	 viewBox="0 0 1700.8 1063" style="enable-background:new 0 0 1700.8 1063;" xml:space="preserve">
<style type="text/css">
	.st0{fill:#FFFFFF;}
	.st1{fill:none;stroke:#000000;stroke-miterlimit:10;}
	.st2{fill:none;}
	.st3{stroke:#FFFFFF;stroke-miterlimit:10;}
	.st4{fill:none;stroke:#FFFFFF;stroke-width:4.252;stroke-linecap:round;stroke-miterlimit:10;}
	.st5{fill:#3C3C3C;}
	.st6{fill:#FFFFFF;stroke:#000000;stroke-width:5.6693;stroke-linecap:round;stroke-miterlimit:10;}
	.st7{fill:#FFFFFF;stroke:#FFFFFF;stroke-width:5.6693;stroke-linecap:round;stroke-miterlimit:10;}
	.st8{fill:none;stroke:#000000;stroke-width:8.5039;stroke-linecap:round;stroke-linejoin:round;stroke-miterlimit:10;}
	.st9{fill:none;stroke:#FFFFFF;stroke-width:8.5039;stroke-linecap:round;stroke-linejoin:round;stroke-miterlimit:10;}
	.st10{fill:none;stroke:#FFFFFF;stroke-width:5.6693;stroke-linecap:round;stroke-miterlimit:10;}
	.st11{fill:#FFFFFF;stroke:#000000;stroke-width:0.9731;stroke-miterlimit:10;}
	.st12{fill:none;stroke:#000000;stroke-width:4.252;stroke-linecap:round;stroke-linejoin:round;stroke-miterlimit:10;}
	.st13{fill:#FFFFFF;stroke:#000000;stroke-width:2.8346;stroke-miterlimit:10;}
	.st14{fill:none;stroke:#000000;stroke-width:4.252;stroke-miterlimit:10;}
	.st15{display:none;}
	.st16{display:inline;}
	.st17{fill:#CCA348;}
	.st18{display:inline;opacity:0.5;}
	.st19{fill:#FFB300;}
	.st20{opacity:0.5;fill:#FFB300;}
	.st21{display:inline;opacity:0.5;fill:#FFB300;}
	.st22{display:inline;fill:#F4AB0B;}
</style>
<g id="Capa_1">
	<rect x="0" class="st2" width="1700.8" height="1063"/>
	<g>
		<g>
			<g>
				<g>
					<g>
						<g>
							<polygon points="353.9,709.1 353.9,239.3 213.1,239.3 213.1,823.7 443.7,823.7 517.9,709.1 							"/>
						</g>
						<polygon points="1487.7,239.3 1487.7,823.7 1346.9,823.7 1346.9,578.1 1139,578.1 1139,823.7 912.6,823.7 790.7,626.4 
							668.8,823.7 510.8,823.7 584.6,709.7 704.8,524.1 513.3,239.3 668.8,239.3 791.5,430 912.6,239.3 1071.4,239.3 998.3,349.7 
							876.6,533.1 998.3,711.6 998.3,451.5 1139,239.3 1139,239.3 1139,462.8 1346.9,462.8 1346.9,239.3 						"/>
					</g>
				</g>
			</g>
		</g>
	</g>
</g>
<g id="Capa_2" class="st15">
</g>
</svg>
