<?xml version="1.0" encoding="utf-8"?>
<!-- Generator: Adobe Illustrator 22.0.0, SVG Export Plug-In . SVG Version: 6.00 Build 0)  -->
<svg version="1.1" xmlns="http://www.w3.org/2000/svg" xmlns:xlink="http://www.w3.org/1999/xlink" x="0px" y="0px"
	 viewBox="0 0 1700.8 1063" style="enable-background:new 0 0 1700.8 1063;" xml:space="preserve">
<style type="text/css">
	.st0{fill:#FFFFFF;}
	.st1{fill:none;stroke:#000000;stroke-miterlimit:10;}
	.st2{fill:none;}
	.st3{stroke:#FFFFFF;stroke-miterlimit:10;}
	.st4{fill:none;stroke:#FFFFFF;stroke-width:4.252;stroke-linecap:round;stroke-miterlimit:10;}
	.st5{fill:#3C3C3C;}
	.st6{fill:#FFFFFF;stroke:#000000;stroke-width:5.6693;stroke-linecap:round;stroke-miterlimit:10;}
	.st7{fill:#FFFFFF;stroke:#FFFFFF;stroke-width:5.6693;stroke-linecap:round;stroke-miterlimit:10;}
	.st8{fill:none;stroke:#000000;stroke-width:8.5039;stroke-linecap:round;stroke-linejoin:round;stroke-miterlimit:10;}
	.st9{fill:none;stroke:#FFFFFF;stroke-width:8.5039;stroke-linecap:round;stroke-linejoin:round;stroke-miterlimit:10;}
	.st10{fill:none;stroke:#FFFFFF;stroke-width:5.6693;stroke-linecap:round;stroke-miterlimit:10;}
	.st11{fill:#FFFFFF;stroke:#000000;stroke-width:0.9731;stroke-miterlimit:10;}
	.st12{fill:none;stroke:#000000;stroke-width:4.252;stroke-linecap:round;stroke-linejoin:round;stroke-miterlimit:10;}
	.st13{fill:#FFFFFF;stroke:#000000;stroke-width:2.8346;stroke-miterlimit:10;}
	.st14{fill:none;stroke:#000000;stroke-width:4.252;stroke-miterlimit:10;}
	.st15{display:none;}
	.st16{display:inline;}
	.st17{fill:#CCA348;}
	.st18{display:inline;opacity:0.5;}
	.st19{fill:#FFB300;}
	.st20{opacity:0.5;fill:#FFB300;}
	.st21{display:inline;opacity:0.5;fill:#FFB300;}
	.st22{display:inline;fill:#F4AB0B;}
</style>
<g id="Capa_1">
	<g>
		<g>
			<g>
				<g>
					<g>
						<g>
							<polygon class="st0" points="353.5,709.3 353.5,239.1 212.6,239.1 212.6,823.9 443.4,823.9 517.7,709.3 							"/>
						</g>
						<polygon class="st0" points="1488.2,239.1 1488.2,823.9 1347.3,823.9 1347.3,578.2 1139.3,578.2 1139.3,823.9 912.7,823.9 
							790.7,626.5 668.6,823.9 510.5,823.9 584.4,709.8 704.7,524.1 513,239.1 668.6,239.1 791.5,429.9 912.7,239.1 1071.6,239.1 
							998.4,349.5 876.6,533.1 998.4,711.7 998.4,451.5 1139.2,239.1 1139.3,239.1 1139.3,462.7 1347.3,462.7 1347.3,239.1 						
							"/>
					</g>
				</g>
			</g>
		</g>
	</g>
</g>
<g id="Capa_2" class="st15">
</g>
</svg>
