<?xml version="1.0" encoding="utf-8"?>
<!-- Generator: Adobe Illustrator 22.0.0, SVG Export Plug-In . SVG Version: 6.00 Build 0)  -->
<svg version="1.1" xmlns="http://www.w3.org/2000/svg" xmlns:xlink="http://www.w3.org/1999/xlink" x="0px" y="0px"
	 viewBox="0 0 560 560" style="enable-background:new 0 0 560 560;" xml:space="preserve">
<style type="text/css">
	.st0{display:none;}
	.st1{display:inline;}
	.st2{fill:none;}
	.st3{fill:#BCBCBC;}
	.st4{fill:#FFFFFF;stroke:#000000;stroke-miterlimit:10;}
	.st5{fill:#FFFFFF;}
</style>
<g id="Capa_2" class="st0">
	<g class="st1">
		<rect class="st2" width="560" height="560"/>
	</g>
	<g class="st1">
		<rect class="st2" width="560" height="560"/>
	</g>
</g>
<g id="Capa_1">
	<g>
		
			<g id="g8_2_" transform="matrix(1.3333333,0,0,-1.3333333,-1017.5957,118.2813)" inkscape:groupmode="layer" inkscape:label="0119_001">
			<g id="g12424_2_" transform="matrix(77.966227,0,0,-77.966227,-8440.0466,7638.8217)">
				<path id="path1072_2_" class="st3" d="M120.8,100.8c-0.6,0-1-0.4-1.2-0.9c0,0,0,0,0,0c0,0,0,0,0,0
					C119.8,100.4,120.2,100.7,120.8,100.8c0.5-0.1,1-0.4,1.2-0.9c0,0,0,0,0,0c0,0,0,0,0,0C121.8,100.4,121.3,100.8,120.8,100.8"/>
				<path id="path1102_2_" class="st3" d="M120.2,98.9C120.2,98.9,120.2,98.9,120.2,98.9C120.2,98.9,120.2,98.9,120.2,98.9
					C120.2,98.9,120.2,98.9,120.2,98.9C120.2,98.9,120.2,98.9,120.2,98.9C120.2,98.9,120.2,98.9,120.2,98.9
					C120.2,98.9,120.2,98.9,120.2,98.9C120.2,98.9,120.2,98.9,120.2,98.9C120.1,98.9,120.1,98.9,120.2,98.9c-0.1,0-0.1,0-0.1,0
					c0,0,0,0,0,0c0,0,0,0,0,0c0,0,0,0,0,0c0,0,0,0,0,0c0,0,0,0,0,0c0,0,0,0,0,0c0,0,0,0,0,0c0,0,0,0,0,0c0,0,0,0,0,0c0,0,0,0,0,0
					c0,0-0.1,0-0.1,0c0,0,0,0,0,0c0,0,0,0,0,0c0,0,0,0,0,0c0,0,0-0.1,0-0.1c0,0,0,0,0-0.1c0,0,0,0,0,0c0,0,0,0,0,0c0,0,0,0.1,0,0.1
					c0,0,0,0,0,0c0,0,0,0,0,0c0,0,0,0,0,0c0,0,0,0,0,0c0,0,0,0,0,0c0,0,0,0,0,0c0,0,0,0,0,0c0,0,0,0,0,0c0,0,0,0,0,0c0,0,0,0,0,0
					c0,0,0,0,0,0c0,0,0,0,0-0.1c0,0,0,0,0,0c-0.1,0.1-0.2,0.2-0.3,0.4c0,0,0,0,0,0c0,0,0,0,0,0l0,0c0.1-0.2,0.2-0.4,0.4-0.5
					c0.2-0.1,0.4-0.2,0.7-0.2c0.2,0,0.5,0.1,0.7,0.2c0.2,0.1,0.3,0.3,0.4,0.5l0,0c0,0,0,0,0,0c0,0,0,0,0,0c0,0,0-0.1-0.1-0.1
					c0,0,0,0,0,0c0,0,0,0,0,0c0,0,0,0,0,0c0,0,0,0,0,0c0,0,0,0-0.1,0c0,0,0,0,0,0c0,0,0,0,0,0c0,0,0,0,0,0c0,0,0,0,0,0l0,0l0,0
					c0,0,0,0,0,0l0,0c0,0,0,0,0,0c0,0,0,0,0,0c0,0,0,0,0,0c0,0,0,0,0,0v0c0,0,0,0,0,0c0,0,0,0,0,0c0,0,0,0,0,0c0,0,0,0,0,0
					c0,0,0,0,0,0l0,0l0,0c0,0,0,0,0,0c0,0,0,0-0.1-0.1c0,0,0,0,0,0c0,0,0,0,0,0c0,0,0,0,0,0c0,0,0,0,0,0c0,0,0,0,0,0c0,0,0,0,0,0
					c0,0,0,0,0,0c0,0,0,0,0,0c0,0,0,0,0,0c0,0,0,0,0,0c0,0,0,0,0,0c0,0,0,0,0,0c0,0,0,0,0,0c0,0,0,0,0,0c0,0,0,0,0,0c0,0,0,0,0,0
					c0,0,0,0,0,0c0,0,0,0,0,0c0,0,0,0,0-0.1c0,0,0,0,0,0c0,0,0,0,0,0c0,0,0,0,0,0c0,0,0,0,0.1,0c0,0,0,0,0,0c0,0,0,0,0,0
					c0,0,0,0,0,0c0,0,0,0,0,0c0,0,0,0,0,0c0,0,0,0,0,0c0,0,0,0,0,0c0,0,0,0,0,0c0,0,0,0,0,0c0,0,0,0,0,0c0,0,0,0,0,0c0,0,0,0,0,0
					c0,0,0,0,0,0c0,0,0,0,0,0c0,0,0,0,0,0c0,0,0,0,0,0c0,0,0,0,0,0c0,0,0,0,0,0c0,0,0,0,0,0c0,0,0,0,0,0c0,0,0,0,0,0c0,0,0,0,0,0
					c0,0,0,0,0,0c0,0,0,0,0,0c0,0,0,0,0,0c0,0,0,0,0,0c0,0,0,0,0,0c0,0,0,0,0,0c0,0,0,0,0,0c0,0,0,0,0,0c-0.1,0-0.1-0.1-0.2-0.1
					c0,0,0,0,0,0c0,0,0,0,0,0c0,0,0,0,0,0c0,0,0,0,0,0l0,0c0,0,0,0,0,0c0,0,0,0,0,0c0,0,0,0,0,0c0,0,0,0,0,0c0,0,0,0,0,0
					c0,0,0,0,0,0c0,0,0,0,0,0c0,0,0,0,0,0c0,0-0.1,0-0.1,0c0,0,0,0,0,0c0,0,0,0,0,0l0,0c0,0,0.1,0,0.1,0c0,0,0,0,0,0c0,0,0,0,0,0
					c0,0,0,0,0,0c0,0,0,0,0,0c0,0,0,0,0,0c0,0,0,0,0,0c0,0,0,0,0,0l0,0c0,0,0,0,0,0c0,0,0,0,0,0c0,0,0,0-0.1,0c0,0,0,0,0,0
					c0,0,0,0,0,0c0,0,0,0,0,0c0,0,0,0,0,0s0,0,0,0c0,0,0,0,0,0c0,0,0,0,0,0c0,0,0,0,0,0c0,0,0,0,0,0c0,0,0,0,0,0c0,0,0,0,0,0
					c0,0,0,0,0,0c0,0,0,0,0,0c0,0,0,0,0,0c0,0-0.1,0-0.1,0c0,0,0,0,0,0c0,0,0,0,0,0c0,0,0,0,0,0c0,0,0,0,0,0c0,0,0,0,0,0
					c0,0,0,0-0.1,0c-0.1,0-0.1,0-0.1,0c0,0,0,0,0,0c0,0,0,0,0,0c0,0,0,0,0.1,0c0,0,0,0,0.1,0c0,0,0,0,0,0c0,0,0,0,0,0c0,0,0,0,0,0
					c0,0,0,0,0,0c0,0,0,0,0,0c0,0,0.1,0,0.1,0c0,0,0,0,0,0c0,0,0,0,0,0c0,0,0,0,0,0c0,0,0,0,0,0c0,0,0,0,0,0c0,0,0,0,0,0
					c0,0,0,0,0,0c0,0,0,0,0,0c0,0,0,0,0.1,0c0,0,0,0,0,0c0,0,0,0,0,0c0,0,0,0,0,0c0,0,0,0,0.1,0c0,0,0,0,0,0c0,0,0,0,0,0
					c0,0,0,0,0.1,0c0,0,0,0,0,0c0,0,0,0,0,0c0,0,0,0,0,0c0,0,0,0,0,0c0,0,0,0,0,0c0,0,0,0,0,0c0,0-0.1,0-0.1,0c0,0,0,0,0,0
					c0,0,0,0,0,0c0,0,0,0-0.1,0c0,0,0.1,0,0.1,0c0,0,0,0,0,0c0,0,0,0,0,0c0,0,0,0,0,0c0,0,0,0,0,0c0,0,0,0,0,0c0,0,0,0,0,0
					c0,0,0,0,0,0c0,0,0,0,0,0c0,0,0,0,0,0c0,0,0,0,0,0c0,0,0,0,0,0c0,0,0,0,0,0c0,0,0,0,0,0c0,0,0,0,0,0c0,0,0,0,0,0c0,0,0,0,0,0
					c0,0-0.1,0-0.1,0c0,0,0,0,0,0c0,0,0,0,0,0c0,0,0,0,0,0c0,0,0,0,0,0c0,0,0,0,0,0c0,0,0,0,0,0c0,0,0,0-0.1,0c0,0,0,0,0,0
					c0,0,0,0,0,0c0,0-0.1,0-0.1,0c0,0,0,0,0,0c0,0,0,0,0,0c0,0,0,0,0,0c0,0,0,0,0,0c0,0,0,0,0,0c0,0,0,0,0,0c0,0,0,0,0,0
					c0,0,0,0,0,0c0,0,0,0,0,0c0,0,0,0,0,0c0,0,0,0,0,0c0,0,0,0,0,0c0,0,0,0,0,0c0,0,0,0,0,0c0,0,0,0,0,0c0,0,0,0,0,0c0,0,0,0,0,0
					c0,0,0,0,0,0c0,0,0,0,0,0c0,0,0,0,0,0c0,0,0,0-0.1,0c0,0,0,0,0,0c0,0,0,0.1,0,0.1c0,0,0,0,0,0c0,0,0,0,0,0c0,0,0,0,0,0
					c0,0,0,0,0,0c0,0,0,0,0,0c0,0,0,0,0,0c0,0,0,0,0,0C120.3,98.9,120.3,98.9,120.2,98.9C120.3,98.9,120.3,98.9,120.2,98.9
					C120.3,98.9,120.3,98.9,120.2,98.9C120.3,98.9,120.3,98.9,120.2,98.9C120.3,98.9,120.2,98.9,120.2,98.9
					C120.2,98.9,120.2,98.9,120.2,98.9C120.2,98.9,120.2,98.9,120.2,98.9C120.2,98.9,120.2,98.9,120.2,98.9
					C120.2,98.9,120.2,98.9,120.2,98.9L120.2,98.9z M121.6,98.7C121.6,98.7,121.6,98.7,121.6,98.7C121.5,98.7,121.5,98.7,121.6,98.7
					C121.5,98.7,121.5,98.7,121.6,98.7C121.5,98.7,121.5,98.7,121.6,98.7C121.5,98.7,121.5,98.7,121.6,98.7
					C121.5,98.7,121.5,98.7,121.6,98.7L121.6,98.7C121.5,98.7,121.5,98.7,121.6,98.7C121.5,98.7,121.5,98.7,121.6,98.7
					C121.6,98.7,121.6,98.7,121.6,98.7"/>
				<path id="path1148_2_" class="st3" d="M120.8,98.4C120.8,98.4,120.7,98.4,120.8,98.4C120.7,98.4,120.8,98.4,120.8,98.4"/>
				<path id="path1154_2_" class="st3" d="M121,98.7C121,98.7,121,98.7,121,98.7C121,98.7,121,98.7,121,98.7L121,98.7
					C121,98.7,121,98.7,121,98.7C121,98.7,121,98.7,121,98.7C121,98.7,121,98.7,121,98.7C121,98.7,121,98.7,121,98.7
					C121,98.7,121,98.7,121,98.7L121,98.7C121,98.7,121,98.7,121,98.7C121.1,98.7,121,98.7,121,98.7C121,98.7,121,98.7,121,98.7
					C121.1,98.7,121.1,98.7,121,98.7C121,98.8,121,98.8,121,98.7C121,98.8,121,98.7,121,98.7C121,98.7,121,98.7,121,98.7
					C121,98.7,121,98.7,121,98.7C121,98.7,121,98.7,121,98.7C121,98.7,121,98.7,121,98.7C121,98.7,121,98.7,121,98.7
					C121,98.7,121,98.7,121,98.7C121,98.7,121,98.7,121,98.7C120.9,98.7,120.9,98.7,121,98.7C120.9,98.7,120.9,98.7,121,98.7
					C121,98.7,121,98.7,121,98.7C121,98.7,121,98.7,121,98.7"/>
				<path id="path1200_2_" class="st3" d="M121.7,98.9C121.7,98.9,121.7,98.9,121.7,98.9C121.7,98.9,121.7,98.9,121.7,98.9
					C121.7,98.9,121.7,98.9,121.7,98.9"/>
				<path id="path1206_2_" class="st3" d="M120.8,98.7C120.8,98.7,120.8,98.7,120.8,98.7C120.8,98.7,120.8,98.7,120.8,98.7
					C120.9,98.7,120.8,98.7,120.8,98.7C120.8,98.7,120.8,98.7,120.8,98.7"/>
				<path id="path1236_2_" class="st3" d="M120.8,98.7C120.8,98.7,120.9,98.7,120.8,98.7L120.8,98.7
					C120.9,98.7,120.8,98.7,120.8,98.7"/>
				<path id="path1266_2_" class="st3" d="M121.3,98.7C121.3,98.7,121.3,98.7,121.3,98.7C121.3,98.7,121.3,98.7,121.3,98.7
					C121.3,98.7,121.3,98.7,121.3,98.7C121.3,98.7,121.3,98.7,121.3,98.7C121.3,98.7,121.3,98.7,121.3,98.7
					C121.3,98.7,121.3,98.7,121.3,98.7C121.3,98.7,121.3,98.7,121.3,98.7C121.3,98.7,121.3,98.7,121.3,98.7
					C121.4,98.7,121.4,98.7,121.3,98.7C121.4,98.7,121.3,98.7,121.3,98.7C121.3,98.7,121.3,98.7,121.3,98.7
					C121.3,98.7,121.3,98.7,121.3,98.7"/>
				<path id="path1296_2_" class="st3" d="M121.4,98.7C121.4,98.7,121.4,98.7,121.4,98.7C121.3,98.7,121.3,98.7,121.4,98.7
					C121.3,98.7,121.3,98.7,121.4,98.7L121.4,98.7C121.3,98.7,121.3,98.6,121.4,98.7C121.3,98.6,121.3,98.6,121.4,98.7
					C121.3,98.6,121.3,98.6,121.4,98.7C121.3,98.6,121.3,98.6,121.4,98.7C121.3,98.6,121.4,98.6,121.4,98.7
					C121.4,98.6,121.4,98.6,121.4,98.7C121.4,98.7,121.4,98.7,121.4,98.7C121.4,98.7,121.4,98.7,121.4,98.7c0.1,0,0.1,0,0.1,0.1
					c0,0,0,0,0,0c0,0,0,0,0,0C121.5,98.7,121.4,98.7,121.4,98.7C121.4,98.8,121.4,98.7,121.4,98.7C121.4,98.7,121.4,98.7,121.4,98.7
					C121.4,98.7,121.4,98.7,121.4,98.7C121.4,98.7,121.4,98.7,121.4,98.7C121.4,98.7,121.4,98.7,121.4,98.7L121.4,98.7
					C121.4,98.7,121.4,98.7,121.4,98.7C121.4,98.7,121.4,98.7,121.4,98.7C121.4,98.7,121.4,98.7,121.4,98.7
					C121.4,98.7,121.4,98.7,121.4,98.7L121.4,98.7L121.4,98.7"/>
				<path id="path1326_2_" class="st3" d="M121.7,98.9C121.7,98.9,121.7,98.9,121.7,98.9C121.7,98.9,121.7,98.9,121.7,98.9
					C121.7,98.9,121.7,98.9,121.7,98.9C121.7,98.9,121.7,98.9,121.7,98.9C121.7,98.9,121.7,98.9,121.7,98.9"/>
				<path id="path1356_2_" class="st3" d="M120.7,100.3C120.7,100.3,120.7,100.3,120.7,100.3C120.7,100.3,120.7,100.3,120.7,100.3
					C120.7,100.3,120.7,100.3,120.7,100.3C120.7,100.3,120.7,100.3,120.7,100.3C120.6,100.4,120.6,100.4,120.7,100.3
					c-0.1,0.1-0.1,0.1-0.1,0c0,0,0,0,0,0c0,0,0,0,0,0c0,0,0,0,0,0c0,0,0,0,0,0c0,0,0,0,0,0c0,0,0,0,0,0c0,0,0,0,0,0c0,0,0,0,0,0
					c0,0,0,0,0,0c0,0,0,0,0,0c0,0,0,0,0,0c0,0,0,0,0,0c0,0,0,0,0,0c0,0,0,0,0,0c0,0,0,0,0,0c0,0,0,0,0,0c0,0,0,0,0,0c0,0,0,0,0,0
					c0,0,0,0,0,0c0,0,0,0,0,0c0,0,0,0,0,0c0,0,0,0,0,0c0,0,0,0,0,0c0,0,0,0,0,0c0,0,0,0,0,0l0,0c0,0,0,0,0,0c0,0,0,0,0,0
					c0,0,0,0,0,0c0,0,0,0-0.1,0c0,0,0,0,0,0c0,0,0,0,0,0c0,0,0,0,0,0c0,0,0,0,0,0c0,0,0,0,0,0c0,0,0,0,0,0c0,0,0,0,0,0c0,0,0,0,0,0
					c0,0,0,0,0,0c0,0,0,0,0,0c0,0,0,0,0,0v0c0,0,0,0,0,0c0,0,0,0,0,0c0,0,0,0,0,0c0,0,0,0,0,0c0,0,0,0,0,0c0,0,0-0.1,0-0.1
					c0,0,0,0,0,0c0,0,0,0,0,0c0,0,0,0,0,0c0,0,0,0,0,0c0,0,0,0,0,0c0,0,0,0,0,0c0,0,0,0,0,0c0,0,0,0,0-0.1c0,0,0,0,0,0
					c0,0,0-0.1-0.1-0.1c0,0,0,0,0-0.1c0,0,0,0,0,0c0.2,0,0.3,0,0.5,0c0.1,0,0.3,0,0.4,0c0,0,0,0,0,0c0,0,0,0,0,0c0,0,0,0,0,0
					c0,0,0,0-0.1,0c0,0,0,0,0,0c0,0,0,0,0,0.1c0,0,0,0,0,0.1c0,0,0,0,0,0c0,0,0,0,0,0c0,0,0,0,0,0c0,0,0,0,0,0
					C120.8,100.2,120.8,100.2,120.7,100.3C120.8,100.2,120.8,100.2,120.7,100.3C120.8,100.3,120.8,100.3,120.7,100.3
					C120.7,100.3,120.7,100.3,120.7,100.3C120.7,100.3,120.7,100.3,120.7,100.3C120.7,100.3,120.7,100.3,120.7,100.3L120.7,100.3z
					 M120.7,100.3L120.7,100.3"/>
				<path id="path1386_2_" class="st3" d="M122.6,99.8c0,0,0-0.1,0-0.1c-0.1,0-0.2,0-0.2,0l0,0.1c0,0-0.1,0-0.1,0
					c0.1-0.2,0.2-0.4,0.2-0.6c0,0,0,0,0.1,0c0,0,0,0,0.1,0c0.1,0.2,0.2,0.4,0.2,0.6C122.6,99.8,122.6,99.8,122.6,99.8L122.6,99.8z
					 M122.3,99.6c0,0,0.1,0,0.1,0c0-0.1,0-0.1-0.1-0.2C122.4,99.4,122.3,99.5,122.3,99.6"/>
				<path id="path1416_2_" class="st3" d="M120.1,99.7c-0.1-0.2-0.2-0.4-0.2-0.6c0.1,0,0.1,0,0.2,0c0,0.1,0.1,0.2,0.1,0.4
					c0-0.1,0.1-0.2,0.1-0.4c0.1,0,0.1,0,0.2,0c-0.1,0.2-0.2,0.4-0.2,0.6C120.2,99.7,120.2,99.7,120.1,99.7
					C120.2,99.7,120.1,99.7,120.1,99.7"/>
				<path id="path1446_2_" class="st3" d="M118.6,99.6c0,0.1,0,0.1,0.1,0.1c0.1,0,0.1-0.1,0.1-0.1v-0.3c0,0,0.1,0,0.1,0v0.3
					c0,0.2-0.1,0.3-0.2,0.3c-0.2,0-0.2-0.1-0.2-0.2v-0.3c0,0,0.1,0,0.1,0L118.6,99.6z"/>
				<path id="path1476_2_" class="st3" d="M121.9,99.4c0.1,0,0.2,0.1,0.2,0.2c0,0.1-0.1,0.2-0.2,0.2c-0.1,0-0.2-0.1-0.2-0.1
					c0,0,0,0,0,0v-0.1c0,0,0,0,0,0c0.1,0.1,0.1,0.1,0.2,0.1c0.1,0,0.1,0,0.1-0.1c0,0,0,0,0,0c0,0,0,0-0.1,0c-0.1,0-0.2-0.1-0.2-0.2
					c0-0.1,0.1-0.2,0.2-0.2c0.1,0,0.2,0,0.2,0.1c0,0,0,0,0,0v0.1c0,0,0,0,0,0c0,0-0.1-0.1-0.2-0.1c0,0-0.1,0-0.1,0
					C121.8,99.3,121.8,99.4,121.9,99.4C121.8,99.4,121.8,99.4,121.9,99.4"/>
				<path id="path1506_2_" class="st3" d="M121.4,99.5c0,0.1,0.1,0.2,0.1,0.2c-0.1,0-0.1,0-0.2,0c0-0.1-0.1-0.1-0.1-0.2
					c0,0-0.1,0-0.1,0v0.2c0,0-0.1,0-0.1,0v-0.6c0.1,0,0.2,0,0.3,0c0.1,0,0.2,0.1,0.2,0.2C121.5,99.5,121.5,99.5,121.4,99.5
					L121.4,99.5z M121.2,99.4c0,0,0.1,0,0.1,0c0.1,0,0.1,0,0.1-0.1c0,0,0-0.1-0.1-0.1c0,0-0.1,0-0.1,0V99.4z"/>
				<path id="path1536_2_" class="st3" d="M119.7,99.8c0-0.2,0-0.4,0-0.6c0,0,0.1,0,0.1,0v0.6C119.8,99.8,119.7,99.8,119.7,99.8"/>
				<path id="path1566_2_" class="st3" d="M120.6,99.5v0.1c0.1,0,0.2,0,0.3,0v0.1c0,0-0.3,0-0.4,0c0-0.2,0-0.4,0-0.6
					c0.1,0,0.4,0,0.4,0v0.1c-0.1,0-0.2,0-0.3,0v0.1c0.1,0,0.1,0,0.2,0v0.1C120.8,99.5,120.7,99.5,120.6,99.5"/>
				<path id="path1596_1_" class="st3" d="M119.4,99.2c0,0,0.1,0,0.1,0v0.6c0,0-0.1,0-0.1,0l0,0c-0.1-0.1-0.2-0.2-0.3-0.3v0.3
					c0,0-0.1,0-0.1,0v-0.6c0,0,0.1,0,0.1,0l0,0c0.1,0.1,0.2,0.2,0.2,0.3L119.4,99.2z"/>
				<path id="path1626_2_" class="st3" d="M122.8,99.2c0,0,0.1,0,0.1,0v0.5c0.1,0,0.2,0,0.2,0v0.1c-0.1,0-0.2,0-0.4,0
					C122.8,99.6,122.8,99.4,122.8,99.2"/>
			</g>
		</g>
	</g>
</g>
</svg>
